# xmcd CD database file
#
# Track frame offsets:
#	150
#	17060
#	35452
#	51952
#	68102
#	83350
#	97840
#	115317
#	129447
#	147695
#	163312
#	179500
#	196467
#	214187
#	229737
#	245742
#	265192
#	282547
#	300722
#	317152
#	317800
#	318462
#	319092
#	319980
#	320469
#	321090
#	322382
#	323350
#	323900
#	324519
#	325227
#	325797
#	326612
#	327147
#	328027
#	328642
#	329319
#	330157
#	331087
#
# Disc length: 4428 seconds
#
# Revision: 1
# Processed by: cddbd v1.5.2PL0 Copyright (c) Steve Scherf et al.
# Submitted via: CDex 1.70beta2
#
DISCID=4e114a27
DTITLE=Jones Country - Jones Country Recurrent CHC-1177
DYEAR=0000
DGENRE=Country
TTITLE0=Ty Herndon/Loved Too Much
TTITLE1=Alan Jackson/Who's Cheatin' Who
TTITLE2=Lonestar/Come Cryin' To Me
TTITLE3=Reba McEntire/I'd Rather Ride Around With You
TTITLE4=Pam Tillis/All The Good Ones Are Gone
TTITLE5=Trace Adkins/I Left Something Turned On At Home
TTITLE6=Tim McGraw and Faith Hill/It's Your Love
TTITLE7=Michael Peterson/Drink, Swear, Steal and Lie [LP version]
TTITLE8=Lila McCann/Down Came A Blackbird
TTITLE9=David Kersh/Day In, Day Out
TTITLE10=Neal McCoy/Shake
TTITLE11=Buffalo Club/Nothin' Less Than Love [edit]
TTITLE12=George Strait/Carrying Your Love With Me
TTITLE13=Kenny Chesney/She's Got It All
TTITLE14=Tracy Lawrence/How A Cowgirl Says Goodbye
TTITLE15=Trisha Yearwood/How Do I Live
TTITLE16=Collin Raye/What The Heart Wants
TTITLE17=Toby Keith/We Were In Love [edit]
TTITLE18=Lee Ann Womack/Fool
TTITLE19=Production Track 20
TTITLE20=Production Track 21
TTITLE21=Production Track 22
TTITLE22=Production Track 23
TTITLE23=Production Track 24
TTITLE24=Production Track 25
TTITLE25=Production Track 26
TTITLE26=Production Track 27
TTITLE27=Production Track 28
TTITLE28=Production Track 29
TTITLE29=Production Track 30
TTITLE30=Production Track 31
TTITLE31=Production Track 32
TTITLE32=Production Track 33
TTITLE33=Production Track 34
TTITLE34=Production Track 35
TTITLE35=Production Track 36
TTITLE36=Production Track 37
TTITLE37=Production Track 38
TTITLE38=Production Track 39
EXTD=YEAR: 0000
EXTT0=
EXTT1=
EXTT2=
EXTT3=
EXTT4=
EXTT5=
EXTT6=
EXTT7=
EXTT8=
EXTT9=
EXTT10=
EXTT11=
EXTT12=
EXTT13=
EXTT14=
EXTT15=
EXTT16=
EXTT17=
EXTT18=
EXTT19=
EXTT20=
EXTT21=
EXTT22=
EXTT23=
EXTT24=
EXTT25=
EXTT26=
EXTT27=
EXTT28=
EXTT29=
EXTT30=
EXTT31=
EXTT32=
EXTT33=
EXTT34=
EXTT35=
EXTT36=
EXTT37=
EXTT38=
PLAYORDER=
